<svg width="129" height="128" viewBox="0 0 129 128" fill="none" xmlns="http://www.w3.org/2000/svg">
<path fill-rule="evenodd" clip-rule="evenodd" d="M54.1855 59.5001C54.6112 60.2384 54.3573 61.1798 53.623 61.6056C52.8847 62.0314 51.9433 61.7775 51.5175 61.0431C42.2597 45.0081 47.3143 24.6091 62.7084 14.6841L62.7124 14.6802C63.9897 13.8599 65.5405 13.5864 67.0249 13.9107C67.0288 13.9107 67.0327 13.9146 67.0327 13.9146C71.521 14.9302 75.6889 17.4732 78.6697 21.4302C82.0681 25.938 83.2752 31.4224 82.4744 36.5982C82.3455 37.4224 81.5876 37.9966 80.7596 37.8912C75.5643 37.235 70.6266 34.5631 67.2286 30.0553C65.5294 27.8014 64.377 25.3053 63.752 22.7233C63.5528 21.8952 64.0606 21.0631 64.8848 20.86C65.7129 20.6608 66.545 21.1686 66.7481 21.9928C67.2793 24.1764 68.2559 26.2897 69.6895 28.1959C72.2247 31.5631 75.7754 33.7193 79.5957 34.5631C79.8379 30.6569 78.7441 26.6529 76.2051 23.2861C73.6817 19.9345 70.1504 17.7822 66.3496 16.9228C65.6699 16.7744 64.9551 16.9033 64.3691 17.2783C50.3491 26.3174 45.7481 44.8993 54.1781 59.5013L54.1855 59.5001Z" fill="black"/>
<path fill-rule="evenodd" clip-rule="evenodd" d="M58.723 65.6989C57.9027 65.9216 57.055 65.4372 56.8324 64.6169C56.6097 63.7966 57.0941 62.9489 57.9144 62.7263C60.1058 62.1287 62.4144 61.8123 64.7972 61.8123C79.2622 61.8123 91.0042 73.5543 91.0042 88.0153C91.0042 102.48 79.2622 114.222 64.7972 114.222C50.3322 114.222 38.5902 102.48 38.5902 88.0153C38.5902 80.1637 42.0511 73.1133 47.5277 68.3083C48.1683 67.7458 49.141 67.8122 49.7035 68.4528C50.266 69.0934 50.1996 70.0661 49.559 70.6286C44.7231 74.8669 41.6684 81.0896 41.6684 88.0196C41.6684 100.782 52.0274 111.141 64.7894 111.141C77.5514 111.141 87.9104 100.782 87.9104 88.0196C87.9104 75.2576 77.5514 64.8986 64.7894 64.8986C62.6878 64.8986 60.6527 65.1799 58.7191 65.7033L58.723 65.6989Z" fill="black"/>
</svg>
